/* XPM */
static char *_d0e61c2aebe472fdef4b5ba00f3c0d2yTuA34XPWbQwexwr[] = {
/* columns rows colors chars-per-pixel */
"34 32 256 2 ",
"   c black",
".  c #080000",
"X  c #000018",
"o  c #100000",
"O  c #180000",
"+  c #000038",
"@  c #200800",
"#  c #280000",
"$  c #281000",
"%  c #300000",
"&  c #282008",
"*  c #302000",
"=  c #382810",
"-  c #303000",
";  c #383000",
":  c #202020",
">  c #282828",
",  c gray19",
"<  c gray22",
"1  c #000040",
"2  c #000048",
"3  c #000058",
"4  c #000060",
"5  c #000070",
"6  c #000078",
"7  c #280040",
"8  c #300058",
"9  c #307800",
"0  c #387000",
"q  c #004040",
"w  c #005858",
"e  c #006868",
"r  c #007070",
"t  c #007878",
"y  c #400000",
"u  c #480000",
"i  c #500000",
"p  c #403018",
"a  c #483818",
"s  c #503818",
"d  c #600000",
"f  c #680000",
"g  c #700000",
"h  c #400040",
"j  c #580058",
"k  c #400070",
"l  c #680070",
"z  c #404000",
"x  c #484000",
"c  c #484800",
"v  c #485800",
"b  c #505000",
"n  c #585800",
"m  c #584020",
"M  c #406000",
"N  c #684820",
"B  c #704828",
"V  c #686800",
"C  c #707000",
"Z  c gray25",
"A  c #484848",
"S  c #505050",
"D  c #606060",
"F  c gray44",
"G  c gray47",
"H  c #000088",
"J  c #000098",
"K  c #0000A0",
"L  c #0000A8",
"P  c #0000B0",
"I  c #0000B8",
"U  c #0000C8",
"Y  c #0000D0",
"T  c #0000E0",
"R  c #0000E8",
"E  c #0000F8",
"W  c #500080",
"Q  c #600098",
"!  c #7000B0",
"~  c #009800",
"^  c #108800",
"/  c #00A000",
"(  c #00B000",
")  c #208000",
"_  c #00C000",
"`  c #00D000",
"'  c #00D800",
"]  c #008080",
"[  c #008888",
"{  c #009898",
"}  c #00A0A0",
"|  c #00A8A8",
" . c #00B0B0",
".. c #20B0B0",
"X. c #00C8C8",
"o. c #00E0E0",
"O. c #00F8F8",
"+. c #20F8F8",
"@. c #58B8F8",
"#. c #48C0C0",
"$. c #40F8F8",
"%. c #58F8F8",
"&. c #70C8C8",
"*. c #78F8F8",
"=. c #800000",
"-. c #880000",
";. c #980000",
":. c #A00000",
">. c #B00000",
",. c #B80000",
"<. c #984800",
"1. c #805028",
"2. c #885830",
"3. c #905830",
"4. c #986038",
"5. c #B05000",
"6. c #A06038",
"7. c #A86840",
"8. c #B07040",
"9. c #B87848",
"0. c #C80000",
"q. c #D00000",
"w. c #E00000",
"e. c #E80000",
"r. c #C86000",
"t. c #E06800",
"y. c #F87800",
"u. c #C87848",
"i. c #800080",
"p. c #980088",
"a. c #980098",
"s. c #B000B0",
"d. c #808000",
"f. c #909000",
"g. c #989800",
"h. c #A8A800",
"j. c #F88820",
"k. c #D08050",
"l. c #D88850",
"z. c #E88858",
"x. c #F89840",
"c. c #F09058",
"v. c #F89860",
"b. c #F8A858",
"n. c #F8A070",
"m. c #C0C000",
"M. c #D0D000",
"N. c #E0E000",
"B. c #E8E800",
"V. c #F8F800",
"C. c #888888",
"Z. c #989898",
"A. c gray66",
"S. c gray69",
"D. c #98D8D8",
"F. c #98F8F8",
"G. c #B8E8E8",
"H. c #B8F8F8",
"J. c #F8B080",
"K. c #F8B890",
"L. c #F8C0A0",
"P. c #C0C0C0",
"I. c #D0D0D0",
"U. c #D8D8D8",
"Y. c #D8F0F0",
"T. c #D8F8F8",
"R. c #F8D8C0",
"E. c gray91",
"W. c #F8F8F8",
"Q. c black",
"!. c black",
"~. c black",
"^. c black",
"/. c black",
"(. c black",
"). c black",
"_. c black",
"`. c black",
"'. c black",
"]. c black",
"[. c black",
"{. c black",
"}. c black",
"|. c black",
" X c black",
".X c black",
"XX c black",
"oX c black",
"OX c black",
"+X c black",
"@X c black",
"#X c black",
"$X c black",
"%X c black",
"&X c black",
"*X c black",
"=X c black",
"-X c black",
";X c black",
":X c black",
">X c black",
",X c black",
"<X c black",
"1X c black",
"2X c black",
"3X c black",
"4X c black",
"5X c black",
"6X c black",
"7X c black",
"8X c black",
"9X c black",
"0X c black",
"qX c black",
"wX c black",
"eX c black",
"rX c black",
"tX c black",
"yX c black",
"uX c black",
"iX c black",
"pX c black",
"aX c black",
"sX c black",
"dX c black",
"fX c black",
"gX c black",
"hX c black",
"jX c black",
"kX c black",
"lX c black",
"zX c black",
"xX c black",
"cX c black",
"vX c black",
"bX c black",
"nX c black",
"mX c black",
"MX c black",
"NX c black",
"BX c black",
"VX c black",
"CX c black",
"ZX c black",
"AX c black",
"SX c black",
"DX c black",
"FX c black",
"GX c black",
"HX c black",
"JX c black",
"KX c black",
"LX c black",
"PX c black",
"IX c black",
"UX c black",
/* pixels */
"p.1 5 5 5 5 5 5 5 5 5 5 5 5 5 1 5 5 5 5 5 5 5 1 5 5 5 5 5 1 5 5 5 p.",
"p.1 J 6 5 J 5 H H H 5 6 5 5 3 1 J H 6 J 6 6 2 1 P P P P P 1 K 6 6 p.",
"p.1 6 4 4 5 5 6 5 6 H 5 3 2 2 1 J 6 H 5 5 2 2 1 P J P J 6 1 6 5 5 p.",
"p.1 H K J J J J H 6 5 5 5 4 2 1 J J 6 4 6 4 2 1 K J P J 5 1 H 5 2 p.",
"p.1 H H J H H 4 6 3 5 2 4 3 2 1 J 6 4 J 5 5 3 1 K K 6 J H 1 1 1 1 p.",
"p.1 5 J 6 H J 4 2 4 5 3 5 4 3 1 H 5 4 6 5 2 2 1 K P 6 6 5 1 J H 6 p.",
"p.1 5 5 6 5 5 5 2 2 2 1 2 4 3 1 H 6 4 3 3 3 2 1 K P H 5 4 2 H H H p.",
"p.1 1 1 1 1 1 1 1 1 3 2 2 2 2 1 6 6 3 2 2 2 2 1 P P 6 6 3 1 1 1 1 p.",
"p.J K K J J K J J 1 1 1 1 1 1 1 1 1 1 1 1 1 1 1 K H 5 5 3 1 4 I I p.",
"p.P H 6 J 5 H 5 H 1 5 H H K J 3 4 2 1 H 5 5 5 1 H K H 5 4 1 J Y Y p.",
"p.J H P 5 H 5 2 5 1 H 6 J 2 5 2 3 5 1 6 5 4 4 1 P K 4 5 3 1 K I J p.",
"p.K 5 H H 5 3 5 2 1 K J H 5 3 3 4 1 1 1 1 1 1 1 H J 4 4 2 2 K K K p.",
"p.K H K H H 5 2 2 1 J 5 6 2 4 4 4 1 J P J H 6 1 H H 5 4 3 1 J I I p.",
"p.J 5 J K H 6 4 3 1 6 H H 6 H 6 5 1 J J 6 J 3 1 P P H 4 2 1 J I K p.",
"p.J 6 J J 3 2 2 2 1 5 H J H J H 2 1 J J J 4 4 1 J J H 5 2 1 6 K I p.",
"p.H H J 5 3 2 1 3 1 5 H H H K 2 5 1 J K 6 4 3 1 H J 6 4 4 1 6 I H p.",
"p.H J 4 5 3 5 3 2 1 1 2 2 2 2 2 2 1 J J 4 4 2 1 J K J 5 5 1 6 K 6 p.",
"p.5 H 5 5 2 1 2 2 1 3 3 3 4 4 3 3 1 J 6 2 3 2 1 P J 5 H 5 1 4 K H p.",
"p.5 3 5 5 2 1 1 2 1 3 H 6 5 6 4 4 1 J 5 4 2 2 1 J K H 4 3 1 4 K 6 p.",
"p.5 H 4 4 2 1 1 2 1 3 5 5 H 6 2 4 1 J J 6 4 3 1 P J 4 2 4 1 4 H H p.",
"p.1 1 1 1 1 1 1 1 1 1 1 1 1 2 4 4 1 H 5 3 2 2 1 J 5 5 2 2 1 1 1 1 p.",
"p.1 H K P P P P P P K J H 5 1 1 1 1 H 5 3 2 2 1 5 3 2 2 2 1 1 2 2 p.",
"p.1 J K J K P H P P J K 5 3 1 H K 1 6 6 4 2 3 1 1 1 1 1 1 1 1 1 1 p.",
"p.1 P K K K H P 6 J H H 4 2 1 K J 1 1 1 1 1 1 1 P P K J K K J P 6 p.",
"p.: P H P 6 K K J I H 4 2 2 1 H 2 1 K K H H 4 1 P K J P 5 H 5 4 5 p.",
"p.1 I I J P H 5 J 4 H 5 2 2 1 1 1 1 I 6 5 2 2 1 P K Y H H 5 6 H 2 p.",
"p.1 P I K K H H 5 6 6 1 2 2 1 P U I I J H 6 4 1 P J I J 5 5 H 5 2 p.",
"p.1 P P K 6 6 4 3 3 4 2 1 2 1 H 6 J J H 6 3 2 1 P J H 6 6 H 6 3 2 p.",
"p.1 P P 6 K J H 5 4 5 3 2 3 1 J J 6 6 J H 5 3 1 P P J 4 2 4 2 1 2 p.",
"p.1 K 6 6 3 3 H 4 3 5 2 4 2 1 J 5 5 4 5 5 3 2 1 K J P 5 3 2 2 1 2 p.",
"p.1 J 6 3 2 2 4 4 4 2 2 2 2 1 H 5 3 4 2 2 3 2 1 J H 6 5 3 3 3 2 2 p.",
"p.1 5 5 5 5 5 5 5 5 5 5 5 5 1 5 5 5 5 5 5 5 5 1 5 5 5 5 5 5 5 5 5 p."
};
